<svg xmlns="http://www.w3.org/2000/svg" viewBox="0 0 1200 900" role="img" aria-label="El sitio conectado al agente de voz y al chatbot">
  <!-- Generado con scratchpad/ilustraciones.py — estilo de placas offset del sitio -->
  <defs></defs>
  <rect width="1200" height="900" fill="#f7fbff"/>
  <g style="mix-blend-mode:multiply" opacity="0.9" transform="translate(4,3)"
     stroke="#0560fc" fill="#0560fc"><g transform="translate(380,120) scale(1)" fill="none" stroke-width="10"><rect x="0" y="0" width="450" height="330" rx="12"/><path d="M0 44 h450"/><circle cx="26" cy="22" r="7" fill="currentColor" stroke="none"/><circle cx="50" cy="22" r="7" fill="currentColor" stroke="none"/><circle cx="74" cy="22" r="7" fill="currentColor" stroke="none"/></g><g transform="translate(520,490) rotate(143.1)" fill="none" stroke-width="8" stroke-linecap="round"><path d="M0 0 H228" stroke-dasharray="3 20"/><path d="M224 -17 l19 17 -19 17" stroke-linejoin="round"/></g><g transform="translate(700,490) rotate(39.8)" fill="none" stroke-width="8" stroke-linecap="round"><path d="M0 0 H212" stroke-dasharray="3 20"/><path d="M208 -17 l19 17 -19 17" stroke-linejoin="round"/></g><g transform="translate(180,650) scale(1.5)"><path stroke="none" d="M18 6c0-9 7-16 16-16h22c8 0 15 6 16 15l2 22c1 8-6 15-14 16l-12 1c-5 25-5 50 0 75l12 1c8 1 15 8 14 16l-2 22c-1 9-8 15-16 15H34c-9 0-16-7-16-16 0-50 0-99 0-151z"/></g><g transform="translate(830,660) scale(1)" stroke-width="10"><rect x="0" y="0" width="290" height="140" rx="14"/><path d="M290 140 l0 26 -26 -26z"/></g></g>
  <g style="mix-blend-mode:multiply" opacity="0.5" transform="translate(-3.5,-2.5)"
     stroke="#37a3fe" fill="#37a3fe"><g transform="translate(380,120) scale(1)" fill="none" stroke-width="10"><rect x="0" y="0" width="450" height="330" rx="12"/><path d="M0 44 h450"/><circle cx="26" cy="22" r="7" fill="currentColor" stroke="none"/><circle cx="50" cy="22" r="7" fill="currentColor" stroke="none"/><circle cx="74" cy="22" r="7" fill="currentColor" stroke="none"/></g><g transform="translate(520,490) rotate(143.1)" fill="none" stroke-width="8" stroke-linecap="round"><path d="M0 0 H228" stroke-dasharray="3 20"/><path d="M224 -17 l19 17 -19 17" stroke-linejoin="round"/></g><g transform="translate(700,490) rotate(39.8)" fill="none" stroke-width="8" stroke-linecap="round"><path d="M0 0 H212" stroke-dasharray="3 20"/><path d="M208 -17 l19 17 -19 17" stroke-linejoin="round"/></g><g transform="translate(180,650) scale(1.5)"><path stroke="none" d="M18 6c0-9 7-16 16-16h22c8 0 15 6 16 15l2 22c1 8-6 15-14 16l-12 1c-5 25-5 50 0 75l12 1c8 1 15 8 14 16l-2 22c-1 9-8 15-16 15H34c-9 0-16-7-16-16 0-50 0-99 0-151z"/></g><g transform="translate(830,660) scale(1)" stroke-width="10"><rect x="0" y="0" width="290" height="140" rx="14"/><path d="M290 140 l0 26 -26 -26z"/></g></g>
  <g stroke="#0a1628" fill="#0a1628"><g transform="translate(380,120) scale(1)" fill="none" stroke-width="10"><rect x="0" y="0" width="450" height="330" rx="12"/><path d="M0 44 h450"/><circle cx="26" cy="22" r="7" fill="currentColor" stroke="none"/><circle cx="50" cy="22" r="7" fill="currentColor" stroke="none"/><circle cx="74" cy="22" r="7" fill="currentColor" stroke="none"/></g><g transform="translate(520,490) rotate(143.1)" fill="none" stroke-width="8" stroke-linecap="round"><path d="M0 0 H228" stroke-dasharray="3 20"/><path d="M224 -17 l19 17 -19 17" stroke-linejoin="round"/></g><g transform="translate(700,490) rotate(39.8)" fill="none" stroke-width="8" stroke-linecap="round"><path d="M0 0 H212" stroke-dasharray="3 20"/><path d="M208 -17 l19 17 -19 17" stroke-linejoin="round"/></g><g transform="translate(180,650) scale(1.5)"><path stroke="none" d="M18 6c0-9 7-16 16-16h22c8 0 15 6 16 15l2 22c1 8-6 15-14 16l-12 1c-5 25-5 50 0 75l12 1c8 1 15 8 14 16l-2 22c-1 9-8 15-16 15H34c-9 0-16-7-16-16 0-50 0-99 0-151z"/></g><g transform="translate(830,660) scale(1)" stroke-width="10"><rect x="0" y="0" width="290" height="140" rx="14"/><path d="M290 140 l0 26 -26 -26z"/></g></g>
</svg>
